<svg xmlns="http://www.w3.org/2000/svg" width="237.201" height="74.039" viewBox="0 0 237.201 74.039">
  <g id="Group_10" data-name="Group 10" transform="translate(-166.247 -206.139)">
    <path id="Path_121" data-name="Path 121" d="M232.535,226.974c0,1.322,0,2.515,0,3.708q.02,14.456.056,28.911a2.616,2.616,0,0,1-1.345,2.489q-14.4,8.714-28.789,17.455a4.3,4.3,0,0,1-4.7-.132c-8.8-4.915-17.559-9.9-26.451-14.641-2.828-1.507-4.239-3.242-4.185-6.6.111-6.857-.175-13.719-.3-20.58q-.277-14.663-.562-29.326c0-.2-.012-.408-.012-.612a.935.935,0,0,1,1.19-.963,3.678,3.678,0,0,1,.757.366c4.635,2.565,27.931,15.455,28.7,15.865a1.746,1.746,0,0,1,1.268,1.952c-.048,3.246-.012,10.665-.021,11.128-.007.348-.015.77-.22.895a.7.7,0,0,1-.674-.06l-.855-.513-17-10.2c-.323-.194-.578-.216-.764-.087-.241.156-.285.423-.285.787,0,8.909.008,17.819-.02,26.728a1.678,1.678,0,0,0,1.011,1.689q8.212,4.579,16.37,9.254a7.457,7.457,0,0,0,8.234.023q7.959-4.908,15.99-9.7a1.636,1.636,0,0,0,.917-1.655c-.042-1.576-.016-3.154-.017-4.731a7.146,7.146,0,0,0-.014-.72.582.582,0,0,0-.176-.393c-.342-.29-.807.073-1.1.252-4.65,2.835-14.7,8.984-15.136,9.227a.933.933,0,0,1-.96.093.987.987,0,0,1-.409-.8c-.01-.5-.129-25.479-.156-32.962a1.558,1.558,0,0,1,.88-1.572q13.261-7.4,26.512-14.811l.6-.337a1.634,1.634,0,0,1,.832-.26.787.787,0,0,1,.6.3,1.2,1.2,0,0,1,.181.767v.721c0,2.706-.045,5.414.036,8.118a3.493,3.493,0,0,1-1.925,3.384c-5.206,3.1-10.374,6.273-15.6,9.344a2.266,2.266,0,0,0-1.34,2.382c0,1.671.029,3.049.054,4.574.01.637.549.893.944.664l15.831-9.221,1.209-.7a.637.637,0,0,1,.653-.03c.181.127.182.45.182.536" transform="translate(0)" fill="#fff"/>
    <path id="Path_122" data-name="Path 122" d="M382.366,240.376a7.288,7.288,0,0,0-2.026-1.525,5.672,5.672,0,0,0-2.527-.522,5.578,5.578,0,0,0-2.489.522,5.071,5.071,0,0,0-1.776,1.427,6.4,6.4,0,0,0-1.081,2.085,8.169,8.169,0,0,0-.366,2.451,6.834,6.834,0,0,0,.425,2.412,6.057,6.057,0,0,0,1.2,1.987,5.49,5.49,0,0,0,1.853,1.332,5.887,5.887,0,0,0,2.431.482,5.555,5.555,0,0,0,2.508-.521,6.407,6.407,0,0,0,1.93-1.525l2.47,2.47a7.761,7.761,0,0,1-3.145,2.161,10.978,10.978,0,0,1-3.8.657,10.466,10.466,0,0,1-3.878-.694,8.931,8.931,0,0,1-3.03-1.95,8.591,8.591,0,0,1-1.969-3.01,10.465,10.465,0,0,1-.695-3.878,10.62,10.62,0,0,1,.695-3.9,8.7,8.7,0,0,1,4.96-5.037,10.309,10.309,0,0,1,3.917-.714,10.491,10.491,0,0,1,3.841.714,8.459,8.459,0,0,1,3.184,2.18Z" transform="translate(-108.017 -15.47)" fill="#fff"/>
    <path id="Path_123" data-name="Path 123" d="M411.079,235.469h3.473v2.817h.077a4.959,4.959,0,0,1,.927-1.331,6.186,6.186,0,0,1,1.292-1.023,6.87,6.87,0,0,1,1.563-.676,5.961,5.961,0,0,1,1.7-.251,4.882,4.882,0,0,1,1.544.231l-.155,3.744q-.425-.116-.849-.193a4.723,4.723,0,0,0-.849-.077,5.114,5.114,0,0,0-3.9,1.428,6.276,6.276,0,0,0-1.351,4.439v9.185h-3.473Z" transform="translate(-130.826 -15.425)" fill="#fff"/>
    <path id="Path_124" data-name="Path 124" d="M442.884,244.616a7.492,7.492,0,0,0,.425,2.567,5.78,5.78,0,0,0,1.2,2.007A5.526,5.526,0,0,0,446.4,250.5a6.763,6.763,0,0,0,5.017,0,5.535,5.535,0,0,0,1.891-1.312,5.818,5.818,0,0,0,1.2-2.007,7.979,7.979,0,0,0,0-5.134,5.822,5.822,0,0,0-1.2-2.006,5.541,5.541,0,0,0-1.891-1.312,6.757,6.757,0,0,0-5.017,0,5.533,5.533,0,0,0-1.891,1.312,5.785,5.785,0,0,0-1.2,2.006,7.493,7.493,0,0,0-.425,2.567m-3.706,0a9.313,9.313,0,0,1,.753-3.744A9.756,9.756,0,0,1,442,237.823a9.831,9.831,0,0,1,13.816,0,9.771,9.771,0,0,1,2.065,3.049,9.314,9.314,0,0,1,.753,3.744,9.516,9.516,0,0,1-2.818,6.812,9.809,9.809,0,0,1-3.088,2.045,10.07,10.07,0,0,1-7.641,0A9.781,9.781,0,0,1,442,251.428a9.514,9.514,0,0,1-2.818-6.812" transform="translate(-145.84 -15.425)" fill="#fff"/>
    <path id="Path_125" data-name="Path 125" d="M499.1,240.062a5.339,5.339,0,0,0-1.525-1.292,4.384,4.384,0,0,0-2.22-.522,4.216,4.216,0,0,0-2.142.522,1.66,1.66,0,0,0-.908,1.525,1.738,1.738,0,0,0,.522,1.312,4.107,4.107,0,0,0,1.235.81,7.236,7.236,0,0,0,1.525.463q.81.154,1.389.27a16.235,16.235,0,0,1,2.1.657,5.853,5.853,0,0,1,1.7,1,4.382,4.382,0,0,1,1.119,1.506,5.193,5.193,0,0,1,.406,2.161,5.074,5.074,0,0,1-.657,2.644,5.538,5.538,0,0,1-1.7,1.794,7.167,7.167,0,0,1-2.373,1,11.87,11.87,0,0,1-2.683.308,10.61,10.61,0,0,1-3.994-.694,7.172,7.172,0,0,1-3.068-2.548l2.624-2.161a10.761,10.761,0,0,0,1.891,1.505,4.69,4.69,0,0,0,2.547.656,6.759,6.759,0,0,0,1.332-.135,4.076,4.076,0,0,0,1.2-.424,2.62,2.62,0,0,0,.849-.733,1.675,1.675,0,0,0,.328-1.023,1.762,1.762,0,0,0-.482-1.273,3.5,3.5,0,0,0-1.159-.792,8.371,8.371,0,0,0-1.428-.463q-.752-.174-1.331-.29-1.12-.27-2.122-.618a6.443,6.443,0,0,1-1.776-.925,4.285,4.285,0,0,1-1.235-1.467,4.712,4.712,0,0,1-.463-2.2,4.978,4.978,0,0,1,.6-2.489,5.322,5.322,0,0,1,1.582-1.756,7.153,7.153,0,0,1,2.238-1.042,9.46,9.46,0,0,1,2.528-.347,9.3,9.3,0,0,1,3.551.694,5.627,5.627,0,0,1,2.7,2.316Z" transform="translate(-171.838 -15.425)" fill="#fff"/>
    <path id="Path_126" data-name="Path 126" d="M538.268,239.026a6.265,6.265,0,0,0,2.509-.482,5.529,5.529,0,0,0,1.89-1.312,5.791,5.791,0,0,0,1.2-2.007,7.97,7.97,0,0,0,0-5.134,5.8,5.8,0,0,0-1.2-2.006,5.536,5.536,0,0,0-1.89-1.312,6.759,6.759,0,0,0-5.018,0,5.528,5.528,0,0,0-1.891,1.312,5.778,5.778,0,0,0-1.2,2.006,7.969,7.969,0,0,0,0,5.134,5.773,5.773,0,0,0,1.2,2.007,5.522,5.522,0,0,0,1.891,1.312,6.255,6.255,0,0,0,2.508.482m-9.494-26.4h3.473v13.508h.077a6.34,6.34,0,0,1,2.664-2.258,8.485,8.485,0,0,1,3.7-.829,9.7,9.7,0,0,1,3.841.733,8.615,8.615,0,0,1,2.933,2.027,8.995,8.995,0,0,1,1.873,3.049,10.807,10.807,0,0,1,.656,3.8,10.64,10.64,0,0,1-.656,3.782,9.23,9.23,0,0,1-1.873,3.049,8.493,8.493,0,0,1-2.933,2.047,9.71,9.71,0,0,1-3.841.733,8.519,8.519,0,0,1-3.608-.811,6.614,6.614,0,0,1-2.759-2.277h-.077v2.624h-3.473Z" transform="translate(-193.716 -3.468)" fill="#fff"/>
    <path id="Path_127" data-name="Path 127" d="M579.893,225.548h3.473v18.294h-3.473Zm-.81-6.561a2.571,2.571,0,1,1,.753,1.794,2.449,2.449,0,0,1-.753-1.794" transform="translate(-220.598 -5.504)" fill="#fff"/>
    <path id="Path_128" data-name="Path 128" d="M613.31,243.111a7.358,7.358,0,0,0-.367-2.123,4.687,4.687,0,0,0-.984-1.679,4.538,4.538,0,0,0-1.641-1.118,6,6,0,0,0-2.3-.406,5.578,5.578,0,0,0-2.335.483,5.7,5.7,0,0,0-1.795,1.254,5.8,5.8,0,0,0-1.139,1.718,4.723,4.723,0,0,0-.406,1.872Zm-10.961,2.779a4.589,4.589,0,0,0,.521,2.18,5.436,5.436,0,0,0,1.371,1.679,6.323,6.323,0,0,0,1.968,1.081,7.075,7.075,0,0,0,2.316.386,5.187,5.187,0,0,0,2.818-.752,9.087,9.087,0,0,0,2.2-1.988l2.624,2.007a9.659,9.659,0,0,1-8.105,3.744,10.1,10.1,0,0,1-3.918-.733,8.531,8.531,0,0,1-2.971-2.027,8.989,8.989,0,0,1-1.872-3.049,10.779,10.779,0,0,1-.657-3.8,9.992,9.992,0,0,1,.714-3.8,9.425,9.425,0,0,1,1.969-3.049,8.981,8.981,0,0,1,2.991-2.027,9.637,9.637,0,0,1,3.782-.733,9.041,9.041,0,0,1,4.11.849,8.138,8.138,0,0,1,2.759,2.218,8.759,8.759,0,0,1,1.563,3.088,12.859,12.859,0,0,1,.483,3.493v1.235Z" transform="translate(-231.05 -15.425)" fill="#fff"/>
    <path id="Path_129" data-name="Path 129" d="M655.831,240.062a5.336,5.336,0,0,0-1.525-1.292,4.383,4.383,0,0,0-2.22-.522,4.213,4.213,0,0,0-2.141.522,1.66,1.66,0,0,0-.908,1.525,1.738,1.738,0,0,0,.522,1.312,4.106,4.106,0,0,0,1.235.81,7.235,7.235,0,0,0,1.525.463q.811.154,1.389.27a16.189,16.189,0,0,1,2.1.657,5.842,5.842,0,0,1,1.7,1,4.369,4.369,0,0,1,1.119,1.506,5.193,5.193,0,0,1,.406,2.161,5.073,5.073,0,0,1-.657,2.644,5.537,5.537,0,0,1-1.7,1.794,7.164,7.164,0,0,1-2.374,1,11.864,11.864,0,0,1-2.682.308,10.611,10.611,0,0,1-3.994-.694,7.174,7.174,0,0,1-3.068-2.548l2.624-2.161a10.774,10.774,0,0,0,1.891,1.505,4.691,4.691,0,0,0,2.547.656,6.758,6.758,0,0,0,1.332-.135,4.076,4.076,0,0,0,1.2-.424,2.615,2.615,0,0,0,.849-.733,1.675,1.675,0,0,0,.328-1.023,1.762,1.762,0,0,0-.482-1.273,3.5,3.5,0,0,0-1.158-.792,8.372,8.372,0,0,0-1.428-.463q-.752-.174-1.331-.29-1.12-.27-2.123-.618a6.431,6.431,0,0,1-1.775-.925,4.275,4.275,0,0,1-1.235-1.467,4.706,4.706,0,0,1-.463-2.2,4.978,4.978,0,0,1,.6-2.489,5.328,5.328,0,0,1,1.582-1.756,7.158,7.158,0,0,1,2.238-1.042,9.458,9.458,0,0,1,2.528-.347,9.3,9.3,0,0,1,3.551.694,5.625,5.625,0,0,1,2.7,2.316Z" transform="translate(-255.587 -15.425)" fill="#fff"/>
    <path id="Path_130" data-name="Path 130" d="M378.257,307.677a5.339,5.339,0,0,0-1.525-1.292,4.384,4.384,0,0,0-2.22-.522,4.213,4.213,0,0,0-2.141.522,1.66,1.66,0,0,0-.908,1.524,1.738,1.738,0,0,0,.522,1.313,4.107,4.107,0,0,0,1.235.81,7.209,7.209,0,0,0,1.525.463q.811.155,1.39.27a16.144,16.144,0,0,1,2.1.657,5.846,5.846,0,0,1,1.7,1,4.367,4.367,0,0,1,1.119,1.506,5.193,5.193,0,0,1,.406,2.161,5.075,5.075,0,0,1-.657,2.644,5.538,5.538,0,0,1-1.7,1.794,7.153,7.153,0,0,1-2.373,1,11.866,11.866,0,0,1-2.683.309,10.611,10.611,0,0,1-3.994-.694,7.174,7.174,0,0,1-3.068-2.548l2.624-2.162a10.757,10.757,0,0,0,1.891,1.506,4.691,4.691,0,0,0,2.547.656,6.758,6.758,0,0,0,1.332-.135,4.089,4.089,0,0,0,1.2-.424,2.616,2.616,0,0,0,.849-.733,1.675,1.675,0,0,0,.328-1.023,1.764,1.764,0,0,0-.482-1.274,3.5,3.5,0,0,0-1.159-.791,8.373,8.373,0,0,0-1.428-.463q-.752-.174-1.331-.29-1.12-.27-2.123-.618a6.433,6.433,0,0,1-1.775-.925,4.276,4.276,0,0,1-1.235-1.467,4.706,4.706,0,0,1-.463-2.2,4.979,4.979,0,0,1,.6-2.489,5.329,5.329,0,0,1,1.582-1.756,7.159,7.159,0,0,1,2.238-1.042,9.438,9.438,0,0,1,2.528-.347,9.3,9.3,0,0,1,3.551.694,5.626,5.626,0,0,1,2.7,2.316Z" transform="translate(-107.266 -51.555)" fill="#fff"/>
    <path id="Path_131" data-name="Path 131" d="M420.274,310.726a7.351,7.351,0,0,0-.367-2.122,4.684,4.684,0,0,0-.984-1.68,4.538,4.538,0,0,0-1.641-1.118,6,6,0,0,0-2.3-.406,5.577,5.577,0,0,0-2.335.483,5.693,5.693,0,0,0-1.795,1.254,5.793,5.793,0,0,0-1.139,1.718,4.723,4.723,0,0,0-.406,1.872ZM409.313,313.5a4.589,4.589,0,0,0,.521,2.18,5.437,5.437,0,0,0,1.371,1.679,6.324,6.324,0,0,0,1.968,1.081,7.073,7.073,0,0,0,2.316.386,5.188,5.188,0,0,0,2.818-.752,9.1,9.1,0,0,0,2.2-1.988l2.624,2.007a9.659,9.659,0,0,1-8.105,3.744,10.1,10.1,0,0,1-3.918-.733,8.533,8.533,0,0,1-2.971-2.026,8.989,8.989,0,0,1-1.872-3.049,10.778,10.778,0,0,1-.657-3.8,9.992,9.992,0,0,1,.714-3.8,9.425,9.425,0,0,1,1.969-3.049,8.975,8.975,0,0,1,2.991-2.027,9.637,9.637,0,0,1,3.782-.733,9.041,9.041,0,0,1,4.11.849,8.137,8.137,0,0,1,2.759,2.218,8.758,8.758,0,0,1,1.563,3.088,12.877,12.877,0,0,1,.483,3.493V313.5Z" transform="translate(-127.902 -51.555)" fill="#fff"/>
    <path id="Path_132" data-name="Path 132" d="M466.907,307.992a7.289,7.289,0,0,0-2.026-1.525,5.665,5.665,0,0,0-2.527-.522,5.572,5.572,0,0,0-2.489.522,5.07,5.07,0,0,0-1.776,1.427,6.4,6.4,0,0,0-1.081,2.085,8.167,8.167,0,0,0-.366,2.451,6.834,6.834,0,0,0,.425,2.412,6.049,6.049,0,0,0,1.2,1.986,5.485,5.485,0,0,0,1.853,1.332,5.887,5.887,0,0,0,2.431.482,5.556,5.556,0,0,0,2.508-.521,6.414,6.414,0,0,0,1.93-1.525l2.47,2.47a7.761,7.761,0,0,1-3.145,2.161,10.978,10.978,0,0,1-3.8.657,10.466,10.466,0,0,1-3.878-.694,8.937,8.937,0,0,1-3.03-1.95,8.6,8.6,0,0,1-1.969-3.01,10.476,10.476,0,0,1-.694-3.878,10.63,10.63,0,0,1,.694-3.9,8.7,8.7,0,0,1,4.961-5.037,10.308,10.308,0,0,1,3.917-.714,10.492,10.492,0,0,1,3.841.714,8.458,8.458,0,0,1,3.184,2.18Z" transform="translate(-153.192 -51.6)" fill="#fff"/>
    <path id="Path_133" data-name="Path 133" d="M511.83,321.911h-3.473v-2.818h-.077A5.117,5.117,0,0,1,506,321.467a7.544,7.544,0,0,1-3.743.907,7.873,7.873,0,0,1-2.547-.406,5.716,5.716,0,0,1-2.1-1.254,6.036,6.036,0,0,1-1.447-2.181,8.311,8.311,0,0,1-.541-3.145V303.617h3.473v10.806a6.121,6.121,0,0,0,.347,2.181,3.983,3.983,0,0,0,.926,1.466,3.455,3.455,0,0,0,1.332.811,4.9,4.9,0,0,0,1.563.251,5.654,5.654,0,0,0,2.007-.347,4.165,4.165,0,0,0,1.62-1.1,5.2,5.2,0,0,0,1.081-1.91,8.7,8.7,0,0,0,.386-2.741v-9.416h3.473Z" transform="translate(-176 -52.087)" fill="#fff"/>
    <path id="Path_134" data-name="Path 134" d="M542.532,303.084h3.473V305.9h.077a4.96,4.96,0,0,1,.927-1.331,6.187,6.187,0,0,1,1.292-1.023,6.871,6.871,0,0,1,1.563-.676,5.961,5.961,0,0,1,1.7-.251,4.881,4.881,0,0,1,1.544.231l-.155,3.744q-.425-.116-.849-.193a4.725,4.725,0,0,0-.849-.077,5.116,5.116,0,0,0-3.9,1.428,6.277,6.277,0,0,0-1.351,4.439v9.185h-3.473Z" transform="translate(-201.067 -51.555)" fill="#fff"/>
    <path id="Path_135" data-name="Path 135" d="M573.677,293.163h3.473v18.294h-3.473Zm-.81-6.561a2.571,2.571,0,1,1,.753,1.794,2.45,2.45,0,0,1-.753-1.794" transform="translate(-217.277 -41.634)" fill="#fff"/>
    <path id="Path_136" data-name="Path 136" d="M601.494,300.735h-4.979v8.3q0,.772.039,1.525a3.977,3.977,0,0,0,.29,1.351,2.191,2.191,0,0,0,.772.965,2.63,2.63,0,0,0,1.524.366,7.4,7.4,0,0,0,1.274-.115,3.666,3.666,0,0,0,1.2-.424v3.164a4.52,4.52,0,0,1-1.6.483,12.222,12.222,0,0,1-1.525.135,7,7,0,0,1-3.107-.559,3.81,3.81,0,0,1-1.62-1.447,4.682,4.682,0,0,1-.618-1.987q-.1-1.1-.1-2.22v-9.533h-4.014v-3.01h4.014v-5.134h3.473v5.134h4.979Z" transform="translate(-225.912 -46.196)" fill="#fff"/>
    <path id="Path_137" data-name="Path 137" d="M621.6,303.616h4.014l5.417,14.28h.079l5.2-14.28h3.705l-8.683,22.23a23.678,23.678,0,0,1-.961,2.181,6.607,6.607,0,0,1-1.191,1.678,4.829,4.829,0,0,1-1.672,1.081,6.586,6.586,0,0,1-2.4.386,13.005,13.005,0,0,1-1.557-.1,5.676,5.676,0,0,1-1.518-.406l.422-3.165a5.42,5.42,0,0,0,2.07.424,3.836,3.836,0,0,0,1.362-.212,2.7,2.7,0,0,0,.958-.617,3.6,3.6,0,0,0,.671-.946q.268-.54.537-1.235l1.125-2.895Z" transform="translate(-243.318 -52.087)" fill="#fff"/>
  </g>
</svg>
