<svg xmlns="http://www.w3.org/2000/svg" width="95.778" height="93.196" viewBox="0 0 95.778 93.196">
  <g id="cctv" transform="translate(0 -6.902)">
    <g id="Group_12" data-name="Group 12" transform="translate(0 25.987)">
      <g id="Group_11" data-name="Group 11">
        <path id="Path_141" data-name="Path 141" d="M93.786,146.2c-.033-.037-.047-.052-6.2-6.2a1.41,1.41,0,1,0-1.995,1.994c3.855,3.856,5.914,5.917,6.126,6.13a4.036,4.036,0,0,1,1.237,2.641c0,3.81-8.246,6.708-10.677,4.176-14.96-15.669-8.4-8.468-37.709-37.839l3.438-3.438a6.549,6.549,0,0,1,9.262,0S71.426,127.817,81.6,137.99A1.41,1.41,0,0,0,83.591,136c-10.17-10.173-24.324-24.329-24.325-24.329a9.369,9.369,0,0,0-13.25,0C33.7,123.99,40.49,117.2,32.353,125.352a8.489,8.489,0,0,0-1.778,9.391,1.41,1.41,0,0,0,2.585-1.127,5.659,5.659,0,0,1,1.188-6.271l1.025-1.028a9.3,9.3,0,0,0,2.741,6.5l15.024,15.024a6.515,6.515,0,0,0,5.477,1.861c11.885-1.545,11.25-1.5,11.7-1.5A3.741,3.741,0,0,1,73,149.348l5.2,5.418c-1.7.99-3.241,1.909-4.634,2.742-4.946,2.958-8.213,4.912-10.508,4.912a4.532,4.532,0,0,1-3.3-1.646l-23.3-23.3a1.41,1.41,0,0,0-1.994,1.994L43.3,148.3l-9.483,9.483a8.171,8.171,0,0,0-7.97,2.961H12.782v-4.3a1.41,1.41,0,0,0-2.82,0v19.1a4.683,4.683,0,0,1-4.677,4.677H3.592a.773.773,0,0,1-.772-.772V149.479a.773.773,0,0,1,.772-.772H5.284a4.689,4.689,0,0,1,4.265,2.753,1.41,1.41,0,0,0,2.57-1.161,7.514,7.514,0,0,0-6.835-4.412H3.592A3.6,3.6,0,0,0,0,149.479v29.963a3.6,3.6,0,0,0,3.592,3.592H5.284a7.506,7.506,0,0,0,7.5-7.5v-4.649h13.07a8.177,8.177,0,0,0,14.591-5.212l10.117-10.117,7.209,7.21a7.266,7.266,0,0,0,5.3,2.472c3.074,0,6.417-2,11.956-5.312,1.545-.924,3.27-1.955,5.2-3.068l.028.029c2.815,2.931,8.449,1.93,11.836-.293,2.383-1.563,3.695-3.636,3.695-5.837A6.743,6.743,0,0,0,93.786,146.2Zm-35.537.709a3.76,3.76,0,0,1-3.117-1.059L40.108,130.825a6.547,6.547,0,0,1-.172-9.081l2.644-2.65,26.55,26.388ZM24.4,168.068H12.872v-4.5H24.4A8.271,8.271,0,0,0,24.4,168.068Zm12.856-.293a5.359,5.359,0,1,1-1.2-5.748A5.352,5.352,0,0,1,37.257,167.774Zm2.454-5.353a8.226,8.226,0,0,0-3.038-3.5l8.624-8.626,3.27,3.271Z" transform="translate(0 -108.923)" fill="#fff"/>
      </g>
    </g>
    <g id="Group_14" data-name="Group 14" transform="translate(49.256 31.358)">
      <g id="Group_13" data-name="Group 13">
        <path id="Path_142" data-name="Path 142" d="M267.132,137.637a3.826,3.826,0,1,0,3.828,3.826A3.831,3.831,0,0,0,267.132,137.637Zm0,4.832a1.006,1.006,0,1,1,1.008-1.006A1.007,1.007,0,0,1,267.132,142.469Z" transform="translate(-263.306 -137.637)" fill="#fff"/>
      </g>
    </g>
    <g id="Group_16" data-name="Group 16" transform="translate(55.776 37.878)">
      <g id="Group_15" data-name="Group 15">
        <path id="Path_143" data-name="Path 143" d="M301.987,172.492a3.826,3.826,0,1,0,3.826,3.826A3.831,3.831,0,0,0,301.987,172.492Zm0,4.832a1.006,1.006,0,1,1,1.006-1.006A1.007,1.007,0,0,1,301.987,177.324Z" transform="translate(-298.161 -172.492)" fill="#fff"/>
      </g>
    </g>
    <g id="Group_18" data-name="Group 18" transform="translate(47.12 18.151)">
      <g id="Group_17" data-name="Group 17" transform="translate(0 0)">
        <path id="Path_144" data-name="Path 144" d="M262.788,69.21a7.416,7.416,0,0,0-10.488,0,1.41,1.41,0,1,0,1.994,1.994,4.593,4.593,0,0,1,6.5,0,1.41,1.41,0,1,0,1.994-1.994Z" transform="translate(-251.887 -67.038)" fill="#fff"/>
      </g>
    </g>
    <g id="Group_20" data-name="Group 20" transform="translate(42.964 12.27)">
      <g id="Group_19" data-name="Group 19">
        <path id="Path_145" data-name="Path 145" d="M248.884,39.5a13.288,13.288,0,0,0-18.8,0,1.41,1.41,0,0,0,1.995,1.994,10.469,10.469,0,0,1,14.813,0,1.41,1.41,0,1,0,1.994-1.994Z" transform="translate(-229.669 -35.6)" fill="#fff"/>
      </g>
    </g>
    <g id="Group_22" data-name="Group 22" transform="translate(39.169 6.902)">
      <g id="Group_21" data-name="Group 21" transform="translate(0 0)">
        <path id="Path_146" data-name="Path 146" d="M236.188,12.372a18.652,18.652,0,0,0-26.392,0,1.41,1.41,0,0,0,1.994,1.994,15.833,15.833,0,0,1,22.4,0,1.41,1.41,0,1,0,1.994-1.994Z" transform="translate(-209.383 -6.902)" fill="#fff"/>
      </g>
    </g>
  </g>
</svg>
