<svg xmlns="http://www.w3.org/2000/svg" width="82.354" height="72.432" viewBox="0 0 82.354 72.432">
  <g id="shield" transform="translate(0 -0.001)">
    <path id="Path_138" data-name="Path 138" d="M24.9,28.8a6.9,6.9,0,1,1,6.9-6.9A6.905,6.905,0,0,1,24.9,28.8Zm0-8.623A1.725,1.725,0,1,0,26.623,21.9,1.73,1.73,0,0,0,24.9,20.174Z" transform="translate(43.659 26.033)" fill="#fff"/>
    <path id="Path_139" data-name="Path 139" d="M41.007,33.8A2.588,2.588,0,0,1,38.42,31.21V29.485a4.318,4.318,0,0,0-4.312-4.312H25.485a4.318,4.318,0,0,0-4.312,4.312V31.21a2.587,2.587,0,0,1-5.174,0V29.485A9.493,9.493,0,0,1,25.485,20h8.623a9.493,9.493,0,0,1,9.485,9.485V31.21A2.588,2.588,0,0,1,41.007,33.8Z" transform="translate(38.76 38.279)" fill="#fff"/>
    <path id="Path_140" data-name="Path 140" d="M29.319,72.433a2.627,2.627,0,0,1-.493-.048C28.536,72.329,0,66.434,0,34.246V12.933a2.583,2.583,0,0,1,1.652-2.411L28.384.174a2.6,2.6,0,0,1,1.866,0L56.982,10.522a2.581,2.581,0,0,1,1.656,2.411V34.246c0,32.189-28.536,38.083-28.826,38.142A2.948,2.948,0,0,1,29.319,72.433ZM5.174,14.706v19.54c0,26.087,20.554,32.1,24.138,32.954,3.57-.866,24.152-6.971,24.152-32.954V14.706L29.319,5.362Z" transform="translate(0 0)" fill="#fff"/>
  </g>
</svg>
