<svg xmlns="http://www.w3.org/2000/svg" width="82.222" height="82.222" viewBox="0 0 82.222 82.222">
  <g id="surveillance" transform="translate(-1 -1)">
    <path id="Path_147" data-name="Path 147" d="M33.3,49.609A5.3,5.3,0,1,0,28,44.3,5.31,5.31,0,0,0,33.3,49.609Zm0-7.957A2.652,2.652,0,1,1,30.652,44.3,2.655,2.655,0,0,1,33.3,41.652Z" transform="translate(8.806 12.394)" fill="#fff"/>
    <path id="Path_148" data-name="Path 148" d="M35.262,59.523A13.262,13.262,0,1,0,22,46.262,13.277,13.277,0,0,0,35.262,59.523Zm0-23.871A10.609,10.609,0,1,1,24.652,46.262,10.622,10.622,0,0,1,35.262,35.652Z" transform="translate(6.849 10.437)" fill="#fff"/>
    <path id="Path_149" data-name="Path 149" d="M36.566,66.132A18.566,18.566,0,1,0,18,47.566,18.587,18.587,0,0,0,36.566,66.132Zm0-34.48A15.914,15.914,0,1,1,20.652,47.566,15.932,15.932,0,0,1,36.566,31.652Z" transform="translate(5.545 9.132)" fill="#fff"/>
    <path id="Path_150" data-name="Path 150" d="M76.591,1H7.631A6.638,6.638,0,0,0,1,7.631v7.957a6.638,6.638,0,0,0,6.631,6.631h2.652v6.631a3.983,3.983,0,0,0,3.978,3.978h1.326V56.7a26.523,26.523,0,1,0,53.046,0V32.828H69.96a3.983,3.983,0,0,0,3.978-3.978V22.219h2.652a6.638,6.638,0,0,0,6.631-6.631V7.631A6.638,6.638,0,0,0,76.591,1ZM65.982,56.7a23.871,23.871,0,1,1-47.742,0V32.828H65.982Zm5.3-27.849a1.328,1.328,0,0,1-1.326,1.326h-55.7a1.328,1.328,0,0,1-1.326-1.326V22.219H71.286Zm9.283-13.262a3.983,3.983,0,0,1-3.978,3.978H7.631a3.983,3.983,0,0,1-3.978-3.978V7.631A3.983,3.983,0,0,1,7.631,3.652h68.96a3.983,3.983,0,0,1,3.978,3.978Z" fill="#fff"/>
    <path id="Path_151" data-name="Path 151" d="M50,19h2.652v2.652H50Z" transform="translate(15.982 5.871)" fill="#fff"/>
    <path id="Path_152" data-name="Path 152" d="M42,19h2.652v2.652H42Z" transform="translate(13.372 5.871)" fill="#fff"/>
    <path id="Path_153" data-name="Path 153" d="M46,19h2.652v2.652H46Z" transform="translate(14.677 5.871)" fill="#fff"/>
    <path id="Path_154" data-name="Path 154" d="M23.566,5H7.652A2.655,2.655,0,0,0,5,7.652v5.3a2.655,2.655,0,0,0,2.652,2.652H23.566a2.655,2.655,0,0,0,2.652-2.652v-5.3A2.655,2.655,0,0,0,23.566,5ZM7.652,12.957v-5.3H23.566v5.3Z" transform="translate(1.305 1.305)" fill="#fff"/>
    <path id="Path_155" data-name="Path 155" d="M56.3,5a5.3,5.3,0,1,0,5.3,5.3A5.31,5.31,0,0,0,56.3,5Zm0,7.957A2.652,2.652,0,1,1,58.957,10.3,2.655,2.655,0,0,1,56.3,12.957Z" transform="translate(16.308 1.305)" fill="#fff"/>
    <path id="Path_156" data-name="Path 156" d="M46.3,5a5.3,5.3,0,1,0,5.3,5.3A5.31,5.31,0,0,0,46.3,5Zm0,7.957A2.652,2.652,0,1,1,48.957,10.3,2.655,2.655,0,0,1,46.3,12.957Z" transform="translate(13.046 1.305)" fill="#fff"/>
    <path id="Path_157" data-name="Path 157" d="M16,27h2.652v2.652H16Z" transform="translate(4.892 8.48)" fill="#fff"/>
    <path id="Path_158" data-name="Path 158" d="M46,27h2.652v2.652H46Z" transform="translate(14.677 8.48)" fill="#fff"/>
  </g>
</svg>
